<svg xmlns="http://www.w3.org/2000/svg" viewBox="0 0 640 800" role="img" aria-label="Generic kit slot map">
  <rect width="640" height="800" fill="#12202c"/>
  <rect x="170" y="70" width="300" height="88" rx="44" fill="#2b3d4d"/>
  <rect x="214" y="168" width="212" height="248" rx="28" fill="#1c2d3a"/>
  <rect x="78" y="188" width="120" height="210" rx="36" fill="#1c2d3a"/>
  <rect x="442" y="188" width="120" height="210" rx="36" fill="#1c2d3a"/>
  <rect x="196" y="428" width="108" height="250" rx="36" fill="#1c2d3a"/>
  <rect x="336" y="428" width="108" height="250" rx="36" fill="#1c2d3a"/>
  <rect x="236" y="214" width="72" height="56" rx="8" fill="#ffe04d"/>
  <rect x="332" y="214" width="72" height="56" rx="8" fill="#4f63ff"/>
  <rect x="94" y="248" width="56" height="72" rx="8" fill="#ff5b3a"/>
  <rect x="490" y="248" width="56" height="72" rx="8" fill="#10a37f"/>
  <rect x="216" y="468" width="68" height="80" rx="8" fill="#9cff57"/>
  <rect x="356" y="468" width="68" height="80" rx="8" fill="#ff8bc7"/>
  <text x="320" y="760" text-anchor="middle" fill="#d7cfc0" font-family="Arial, sans-serif" font-size="18" letter-spacing="3">YOUR SLOT MAP</text>
</svg>
